<svg width="22" height="20" viewBox="0 0 22 20" fill="none" xmlns="http://www.w3.org/2000/svg">
<path d="M10.2266 15.8333V7.5H4.39323V15.8333H10.2266ZM10.2266 5.83333V3.33333C10.2266 3.1 10.3071 2.90278 10.4682 2.74167C10.6293 2.58055 10.8266 2.5 11.0599 2.5H18.5599C18.7932 2.5 18.9905 2.58055 19.1516 2.74167C19.3127 2.90278 19.3932 3.1 19.3932 3.33333V16.6667C19.3932 16.9 19.3127 17.0972 19.1516 17.2583C18.9905 17.4194 18.7932 17.5 18.5599 17.5H3.5599C3.32656 17.5 3.12934 17.4194 2.96823 17.2583C2.80712 17.0972 2.72656 16.9 2.72656 16.6667V6.66667C2.72656 6.43333 2.80712 6.23611 2.96823 6.075C3.12934 5.91389 3.32656 5.83333 3.5599 5.83333H10.2266ZM11.8932 4.16667V15.8333H17.7266V4.16667H11.8932ZM5.22656 13.3333H9.39323V15H5.22656V13.3333ZM12.7266 13.3333H16.8932V15H12.7266V13.3333ZM12.7266 10.8333H16.8932V12.5H12.7266V10.8333ZM12.7266 8.33333H16.8932V10H12.7266V8.33333ZM5.22656 10.8333H9.39323V12.5H5.22656V10.8333Z" fill="#2563EB"/>
</svg>
