<svg version="1.2" xmlns="http://www.w3.org/2000/svg" viewBox="0 0 1557 692" width="1557" height="692">
	<title>ADNOC-2-svg</title>
	<style>
		.s0 { fill: #1947ba } 
	</style>
	<g id="#1947baff">
		<path id="Layer" class="s0" d="m869.7 0.8q343.4 0 686.7 0c0 74 0.1 148 0 222-16.4-22.5-36.1-42.5-57.5-60.2-46.5-38.4-103.1-64.8-162.8-73.9-35.1-5.4-71-5.3-106.1 0-18.7 3-37 7.8-54.9 13.9-13.5 4.7-26.9 9.9-39.7 16.3-25.6 13-49.9 29-70.9 48.7-4.9 4.2-9 9.2-13.4 13.8-21.4 14.1-41.4 30.9-56.3 51.9-8.2 11-12.4 24.5-14.8 37.9-5.2 29.7 4.6 60.9 23.5 84.1q0.7 0.8 1.5 1.5c-1.6-6.8-2.3-13.8-1-20.8 1.5-9.3 6.2-18.1 13.3-24.4 25.9 6.8 52.8 8.5 79.5 9 2.8-0.2 5.7 0.2 8.4 1.2 14.3 3 28.4 7.3 41.7 13.5 25.2 11.6 47.4 29.8 62.8 52.9 16 23.7 24.6 52 25.8 80.4 0.8 16.5-1 33.1-4.3 49.2-6.1 27-21 51.3-38.8 72.2-18.8 21.8-41.2 40.5-65.6 55.6-43.7 27.2-94.9 43-146.6 42.1-36.8-0.1-73.7 0-110.5-0.1q0-343.4 0-686.8zm326.3 181c49.9-19.2 104.3-25.5 157.4-20.3 15 1.5 30 3.3 44.7 6.6 30.3 6.9 59.4 18.7 86.5 33.9 24 13.7 46.8 29.8 67 48.8 1.4 1.8 3.7 3 4.8 5.1q0.1 30.8 0 61.6c-16.1-22.1-35.2-41.9-56.2-59.3-21.1-17.5-44.2-32.7-68.8-44.7-48.5-24-103.1-35.3-157.1-33.5 3.4 13 0.9 27.4-6.8 38.4-7.4 10.6-19.2 17.9-31.7 20.5-15.5 3.2-32.2-0.3-44.9-9.7-9.9-7.1-17.2-17.7-20-29.6-14.4 5.2-28.5 11.2-42.1 18.1-2.3 1.1-4.4 2.6-6.8 3.3 23-15.8 47.8-29.3 74-39.2zm82.3 102.3c6.1 0.7 12 2.6 18 4.1 58.4 15.6 112.4 47.1 155.2 89.9 34.7 34.8 62.2 76.8 80.3 122.5 23.4 59.1 30.8 124.7 19.3 187.2-56.6 0-113.2 0.1-169.7 0 31.4-31.5 53.7-72 63.5-115.4 6.1-32.6 7.5-66.4 1.9-99.3-4.8-28.2-14.9-55.6-29.9-80.1-15.7-25.8-36.6-48.3-60.4-66.8-19.9-15.4-41.8-28.4-65.2-37.7-4.3-1.7-8.6-3.2-13-4.4z"/>
		<path id="Layer" fill-rule="evenodd" class="s0" d="m754 267.3c2.9-5 8.7-7.4 14.3-7.4 5.1-0.2 10.8 0.3 14.6 4.1 3 3.2 4.1 7.7 4.8 11.9-3.6 0.6-7.1 1-10.7 1.5-0.6-2.3-0.9-5.3-3.3-6.5-3.3-1.3-8-0.6-9.6 2.8-1.4 3.4-0.8 7.1-0.9 10.6q12.6 0 25.1 0 0 5.7 0 11.4-21 0-42 0c0.1-3.9-0.1-7.7 0.2-11.5q2.5 0.1 5.1 0.1c0.2-5.7-0.8-11.9 2.4-17zm-586.2 24.8q16.5-0.1 33 0 0 83.7 0 167.5-65.2 0-130.4 0c-14.8 0.3-30.1-0.6-43.7-7-9.1-4.3-16.6-11.7-20.8-20.8-4.8-10.5-5.9-22.2-5.4-33.6 0.6-12.6 5.2-25.4 14.2-34.5 11.1-11.2 27-15.9 42.3-16.6 1.3 9.3 2.5 18.7 3.8 28-7.9 0.9-16.5 2.1-22.6 7.8-5.8 5.7-7 14.4-6.6 22.1 0.2 7.2 2.3 14.8 8.1 19.5 6 4.9 14.1 6.1 21.6 6.3 35.5 0 71 0 106.6 0q-0.1-69.4-0.1-138.7zm344.5 3.4c10.6 0 21.2-0.1 31.7 0q0 15.9 0 31.8-15.9 0-31.7 0c0-10.6-0.1-21.2 0-31.8zm239.7 12.3q15.9 0 31.8 0 0 75.9 0 151.8-15.9 0-31.8 0 0-75.9 0-151.8zm-648.3 34.4c3.4-5.6 10.5-7.4 16.7-7 4.4 0.1 9.2 1.1 12.3 4.5 2.8 3.2 3.8 7.5 4.4 11.6-3.6 0.5-7.2 1-10.7 1.4-0.5-2.1-0.7-4.9-2.8-6.2-3.3-1.6-8.2-1-10 2.6-1.5 3.3-0.9 7.1-1 10.7q12.6 0 25.2 0 0 5.6 0 11.2-20.9 0-41.9 0c0-3.7 0-7.5 0.1-11.2q2.5 0 5 0c0.2-5.9-0.8-12.3 2.7-17.6zm150.5 5.9c11.8-5.4 25.2-6 37.9-4.6 10.5 1.4 21.2 5.3 28.5 13.4 9.1 9.9 12 23.7 12.4 36.8 0.1 12.3 0 24.7 0 37.1 59.8 0 119.5 0 179.3 0q-0.1-44 0-88 15.8 0 31.7 0 0 58.4 0 116.8c-70.3 0-140.6 0-211 0 0 13.4-1.8 27.1-7.5 39.4-2.7 5.8-7.4 10.5-12.9 13.8-5.4-8.4-10.7-16.9-16.1-25.3 5.3-8.2 4.6-18.6 4.8-27.9-18.2 0.4-37.4-1.9-52.7-12.5-10.3-7-16.9-18.4-19.8-30.4-2.9-12.4-3.3-25.7 0-38.1 3.5-13.2 13-24.8 25.4-30.5zm7.6 32c-3.9 7.8-4.1 16.9-2.8 25.4 1.4 8.7 6.3 17.3 14.4 21.4 8.5 4.6 18.5 3.9 27.9 3.9-0.1-9.8 0-19.7-0.1-29.5-0.2-6.1-0.4-12.2-1.7-18.1-1-4.5-3.3-9.1-7.6-11.2-4.8-2.3-10.3-2.4-15.6-2-6.1 0.7-11.7 4.5-14.5 10.1zm367.1-32c10.5-3.6 21.6-5 32.7-5.2 11.2-0.1 22.8 1.4 32.9 6.5 9.6 4.7 17.5 12.7 22.4 22.1 7.6 14.2 8.6 30.6 8.4 46.4q0 20.8 0 41.7-78.8 0-157.6 0 0-14.4 0-28.8 62.8 0 125.6 0c-0.2-11.5 1-23.3-1.7-34.6-1.5-6.4-4.3-12.8-9.3-17.2-5.4-4.9-12.8-6.9-20-7.1-8.8-0.3-17.5 1.6-25.8 4.2-2.7-9.3-4.9-18.7-7.6-28zm-83.5 179.4c17.9-1.8 36.9 0.6 52.2 10.4 12.2 7.6 21.1 19.5 26.3 32.7 6.3 16.1 7.5 33.8 6.1 50.9-1.5 16.6-6.7 33.3-17.4 46.3-7.5 9.2-17.8 15.9-29 19.7-9.2 3.1-19 4.3-28.8 4.1-14.7 0-29.8-3.6-42-12-12.2-8-20.9-20.5-25.8-34.1-6.1-16.9-6.9-35.4-4.7-53.2 2.6-19.2 11.2-38.4 26.8-50.5 10.4-8.2 23.2-12.9 36.3-14.3zm2.7 28.3c-5.1 0.8-10.1 2.5-14.3 5.3-7.3 4.7-11.9 12.4-14.6 20.4-3.8 11.4-4.4 23.6-3.8 35.4 0.7 10.6 2.8 21.4 8.5 30.4 3.8 6.3 9.7 11.2 16.6 13.6 8.4 3 17.7 3.2 26.4 1.3 7.9-1.7 15.3-6.4 19.8-13.2 6.9-10 9.2-22.3 9.7-34.2 0.5-12-0.3-24.3-4.7-35.5-2.9-7.5-7.6-14.5-14.5-18.7-8.7-5.3-19.3-6.1-29.1-4.8zm140.9-21.1c14.3-7.4 30.9-8.8 46.7-7 12.4 1.4 24.8 5.9 33.7 14.8 10.3 10.1 15.4 24.2 17.9 38.2-10.9 1.4-21.8 2.7-32.6 4.2-1.5-8.2-4.3-16.6-10.3-22.7-3.8-4-9.4-5.9-14.8-6.6-9.1-1-18.8 0.1-26.4 5.5-8.6 6-13.3 16.1-15.6 26.1-2.3 9.8-2.5 19.9-2 29.9 0.8 12.2 3.7 24.9 11.9 34.5 5.7 6.9 14.2 11.2 23.2 11.7 7.9 0.5 16.6-0.6 23-5.7 7-6 9.8-15.4 11-24.3q17.6 0 35.2 0c-1.1 14.3-6.3 28.6-16.1 39.2-10.3 11.2-25.3 17.2-40.3 18.7-14.9 1.3-30.6 0.1-44.2-6.6-11.9-5.7-21.8-15.5-27.9-27.2-6.7-12.6-9.6-26.9-10.3-41.1-0.8-17.8 1.3-36.3 9.5-52.4 6.1-12.4 16-23 28.4-29.2zm-630.2-3.7c10.5-0.1 21-0.2 31.6 0 19.4 52.3 39.1 104.4 58.6 156.6-11.8 0-23.5 0.1-35.3 0-4.1-12-8.3-24-12.5-36.1-18.2-0.1-36.3 0.1-54.5 0q-6.4 18-12.5 36.1c-11.4 0-22.7 0.1-34.1 0 19.6-52.2 39.3-104.3 58.7-156.6zm12.9 43.6c-5.5 16.6-11.2 33.2-16.7 49.8 12.6 0 25.1 0 37.6 0-6.2-18.4-12.5-36.8-18.7-55.3-1.2 1.6-1.5 3.7-2.2 5.5zm96.2-43.7q30.3 0 60.7 0c16.2 0.3 33 3.7 46.4 13.2 10.6 7.3 18.5 18.2 22.6 30.4 4 11.4 5.2 23.7 5.1 35.7-0.2 13.1-2.3 26.3-8 38.1-3.2 7-7.7 13.4-13.2 18.7-7.9 7.9-18.1 13.3-28.7 16.5-10.6 3.1-21.6 4.3-32.5 4.1q-26.2 0.1-52.4 0-0.1-78.3 0-156.7zm32.9 28c0 33.6 0 67.1 0 100.7 8 0.1 16 0 24 0 11.9-0.3 24.4-4 32.4-13.2 9.5-10.8 11.7-26 11.5-39.9-0.4-11.8-2.1-24.2-9.4-33.8-6.6-8.8-17.7-13.2-28.5-13.6-10-0.4-20-0.1-30-0.2zm127.9-28c9.9 0.1 19.8-0.1 29.6 0.1 21.2 34.1 42.7 68 64 102 0.1-34 0-68.1 0.1-102.1 10.6 0 21.3 0.1 31.9 0 0.1 52.2 0 104.5 0 156.7-9.7 0.1-19.4 0-29.1 0.1-21.7-33.6-42.8-67.6-64.5-101.1q0 50.5 0 101-16 0-32 0 0-78.3 0-156.7z"/>
	</g>
</svg>