<svg width="80" height="69" viewBox="0 0 80 69" fill="none" xmlns="http://www.w3.org/2000/svg">
<path d="M65.5949 47.4375H71.9936V53.1875H8.00639V47.4375H14.4051V27.3125C14.4051 23.1342 15.5782 19.2625 17.9244 15.6975C20.1853 12.2475 23.2353 9.50667 27.0746 7.475C31.0418 5.36667 35.3503 4.3125 40 4.3125C44.6497 4.3125 48.9582 5.36667 52.9254 7.475C56.7646 9.50667 59.8147 12.2475 62.0756 15.6975C64.4218 19.2625 65.5949 23.1342 65.5949 27.3125V47.4375ZM59.1962 47.4375V27.3125C59.1962 24.2075 58.3217 21.3133 56.5727 18.63C54.8664 16.0233 52.5628 13.9533 49.6621 12.42C46.676 10.8483 43.4553 10.0625 40 10.0625C36.5447 10.0625 33.324 10.8483 30.3379 12.42C27.4372 13.9533 25.1336 16.0233 23.4273 18.63C21.6783 21.3133 20.8038 24.2075 20.8038 27.3125V47.4375H59.1962ZM30.4019 58.9375H49.5981V64.6875H30.4019V58.9375Z" fill="black"/>
</svg>
