<svg width="32" height="32" viewBox="0 0 32 32" fill="none" xmlns="http://www.w3.org/2000/svg">
<rect width="32" height="32" rx="16" fill="#F3E8FF"/>
<path d="M15.9974 9.66671C16.8418 9.66671 17.6285 9.88004 18.3574 10.3067C19.0596 10.7156 19.6152 11.2712 20.0241 11.9734C20.4507 12.7023 20.6641 13.4889 20.6641 14.3334V14.56C21.1796 14.7378 21.6396 15.0134 22.0441 15.3867C22.4485 15.76 22.7641 16.2023 22.9907 16.7134C23.2174 17.2245 23.3307 17.7645 23.3307 18.3334C23.3307 19.0534 23.1485 19.7245 22.7841 20.3467C22.4285 20.9512 21.9485 21.4312 21.3441 21.7867C20.7218 22.1512 20.0507 22.3334 19.3307 22.3334H12.6641C11.9441 22.3334 11.273 22.1512 10.6507 21.7867C10.0463 21.4312 9.56628 20.9512 9.21073 20.3467C8.84628 19.7245 8.66406 19.0534 8.66406 18.3334C8.66406 17.7645 8.7774 17.2245 9.00406 16.7134C9.23073 16.2023 9.54628 15.76 9.95073 15.3867C10.3552 15.0134 10.8152 14.7378 11.3307 14.56V14.3334C11.3307 13.4889 11.5441 12.7023 11.9707 11.9734C12.3796 11.2712 12.9352 10.7156 13.6374 10.3067C14.3663 9.88004 15.153 9.66671 15.9974 9.66671ZM15.9974 11C15.393 11 14.8352 11.1489 14.3241 11.4467C13.813 11.7445 13.4085 12.1489 13.1107 12.66C12.813 13.1712 12.6641 13.7289 12.6641 14.3334L12.7174 15.4934L11.7841 15.8134C11.2507 16 10.8196 16.3245 10.4907 16.7867C10.1618 17.2489 9.9974 17.7645 9.9974 18.3334C9.9974 18.8134 10.1174 19.2578 10.3574 19.6667C10.5974 20.0756 10.9218 20.4 11.3307 20.64C11.7396 20.88 12.1841 21 12.6641 21H19.3307C19.8107 21 20.2552 20.88 20.6641 20.64C21.073 20.4 21.3974 20.0756 21.6374 19.6667C21.8774 19.2578 21.9974 18.8134 21.9974 18.3334C21.9974 17.8534 21.8774 17.4089 21.6374 17C21.3974 16.5912 21.073 16.2667 20.6641 16.0267C20.2552 15.7867 19.8107 15.6667 19.3307 15.6667C18.753 15.6667 18.2307 15.8356 17.7641 16.1734C17.2974 16.5112 16.9752 16.9512 16.7974 17.4934L15.5307 17.0667C15.7085 16.5423 15.9841 16.0712 16.3574 15.6534C16.7307 15.2356 17.1752 14.9112 17.6907 14.68C18.2063 14.4489 18.753 14.3334 19.3307 14.3334C19.3307 13.7289 19.1818 13.1712 18.8841 12.66C18.5863 12.1489 18.1818 11.7445 17.6707 11.4467C17.1596 11.1489 16.6018 11 15.9974 11Z" fill="#9333EA"/>
</svg>
