<svg width="15" height="15" viewBox="0 0 15 15" fill="none" xmlns="http://www.w3.org/2000/svg">
<path d="M5.545 1.26204V2.42871H9.045V1.26204H10.2117V2.42871H12.545C12.7083 2.42871 12.8464 2.4851 12.9592 2.59788C13.0719 2.71066 13.1283 2.84871 13.1283 3.01204V12.3454C13.1283 12.5087 13.0719 12.6468 12.9592 12.7595C12.8464 12.8723 12.7083 12.9287 12.545 12.9287H2.045C1.88167 12.9287 1.74361 12.8723 1.63084 12.7595C1.51806 12.6468 1.46167 12.5087 1.46167 12.3454V3.01204C1.46167 2.84871 1.51806 2.71066 1.63084 2.59788C1.74361 2.4851 1.88167 2.42871 2.045 2.42871H4.37834V1.26204H5.545ZM11.9617 7.09538H2.62834V11.762H11.9617V7.09538ZM4.37834 3.59538H2.62834V5.92871H11.9617V3.59538H10.2117V4.76204H9.045V3.59538H5.545V4.76204H4.37834V3.59538Z" fill="black"/>
</svg>
