<svg width="17" height="16" viewBox="0 0 17 16" fill="none" xmlns="http://www.w3.org/2000/svg">
<path d="M6.33464 1.33341V2.66675H10.3346V1.33341H11.668V2.66675H14.3346C14.5213 2.66675 14.6791 2.73119 14.808 2.86008C14.9369 2.98897 15.0013 3.14675 15.0013 3.33341V14.0001C15.0013 14.1867 14.9369 14.3445 14.808 14.4734C14.6791 14.6023 14.5213 14.6667 14.3346 14.6667H2.33464C2.14797 14.6667 1.99019 14.6023 1.8613 14.4734C1.73241 14.3445 1.66797 14.1867 1.66797 14.0001V3.33341C1.66797 3.14675 1.73241 2.98897 1.8613 2.86008C1.99019 2.73119 2.14797 2.66675 2.33464 2.66675H5.0013V1.33341H6.33464ZM13.668 7.33341H3.0013V13.3334H13.668V7.33341ZM10.3613 8.09341L11.2946 9.04008L8.0013 12.3334L5.6413 9.97341L6.58797 9.04008L8.0013 10.4534L10.3613 8.09341ZM5.0013 4.00008H3.0013V6.00008H13.668V4.00008H11.668V4.66675H10.3346V4.00008H6.33464V4.66675H5.0013V4.00008Z" fill="#10B981"/>
</svg>
