<svg width="32" height="32" viewBox="0 0 32 32" fill="none" xmlns="http://www.w3.org/2000/svg">
<rect width="32" height="32" rx="8" fill="#F3E8FF"/>
<path d="M18 10.6667H11.3333V21.3334H20.6667V13.3334H18V10.6667ZM10 10.0001C10 9.81341 10.0644 9.65564 10.1933 9.52675C10.3222 9.39786 10.48 9.33341 10.6667 9.33341H18.6667L22 12.6667V22.0001C22 22.1779 21.9356 22.3334 21.8067 22.4667C21.6778 22.6001 21.52 22.6667 21.3333 22.6667H10.6667C10.48 22.6667 10.3222 22.6023 10.1933 22.4734C10.0644 22.3445 10 22.1867 10 22.0001V10.0001ZM19.7733 16.0001L17.4133 18.3601L16.4667 17.4134L17.88 16.0001L16.4667 14.5867L17.4133 13.6401L19.7733 16.0001ZM12.2267 16.0001L14.5867 13.6401L15.5333 14.5867L14.12 16.0001L15.5333 17.4134L14.5867 18.3601L12.2267 16.0001Z" fill="#9333EA"/>
</svg>
