<svg width="32" height="32" viewBox="0 0 32 32" fill="none" xmlns="http://www.w3.org/2000/svg">
<rect width="32" height="32" rx="16" fill="#DCFCE7"/>
<path d="M11.3333 16C11.3333 16.1156 11.4133 16.2534 11.5733 16.4134C11.76 16.5912 12.0222 16.7645 12.36 16.9334C12.8222 17.1645 13.3689 17.3445 14 17.4734C14.6311 17.6023 15.2978 17.6667 16 17.6667C16.7022 17.6667 17.3689 17.6023 18 17.4734C18.6311 17.3445 19.1778 17.1645 19.64 16.9334C19.9778 16.7645 20.24 16.5912 20.4267 16.4134C20.5867 16.2534 20.6667 16.1156 20.6667 16V14.5467C20.1067 14.8934 19.4267 15.1645 18.6267 15.36C17.8 15.5645 16.9244 15.6667 16 15.6667C15.0756 15.6667 14.2 15.5645 13.3733 15.36C12.5733 15.1645 11.8933 14.8934 11.3333 14.5467V16ZM20.6667 17.88C20.1067 18.2267 19.4267 18.4978 18.6267 18.6934C17.8 18.8978 16.9244 19 16 19C15.0756 19 14.2 18.8978 13.3733 18.6934C12.5733 18.4978 11.8933 18.2267 11.3333 17.88V19.3334C11.3333 19.4489 11.4133 19.5867 11.5733 19.7467C11.76 19.9245 12.0222 20.0978 12.36 20.2667C12.8222 20.4978 13.3689 20.6778 14 20.8067C14.6311 20.9356 15.2978 21 16 21C16.7022 21 17.3689 20.9356 18 20.8067C18.6311 20.6778 19.1778 20.4978 19.64 20.2667C19.9778 20.0978 20.24 19.9245 20.4267 19.7467C20.5867 19.5867 20.6667 19.4489 20.6667 19.3334V17.88ZM10 19.3334V12.6667C10 12.1245 10.2711 11.6178 10.8133 11.1467C11.3467 10.7023 12.0667 10.3467 12.9733 10.08C13.9067 9.80448 14.9156 9.66671 16 9.66671C17.0844 9.66671 18.0933 9.80448 19.0267 10.08C19.9333 10.3467 20.6533 10.7023 21.1867 11.1467C21.7289 11.6178 22 12.1245 22 12.6667V19.3334C22 19.8756 21.7289 20.3823 21.1867 20.8534C20.6533 21.2978 19.9333 21.6534 19.0267 21.92C18.0933 22.1956 17.0844 22.3334 16 22.3334C14.9156 22.3334 13.9067 22.1956 12.9733 21.92C12.0667 21.6534 11.3467 21.2978 10.8133 20.8534C10.2711 20.3823 10 19.8756 10 19.3334ZM16 14.3334C16.7022 14.3334 17.3689 14.2689 18 14.14C18.6311 14.0112 19.1778 13.8312 19.64 13.6C19.9778 13.4312 20.24 13.2578 20.4267 13.08C20.5867 12.92 20.6667 12.7823 20.6667 12.6667C20.6667 12.5512 20.5867 12.4134 20.4267 12.2534C20.24 12.0756 19.9778 11.9023 19.64 11.7334C19.1778 11.5023 18.6311 11.3223 18 11.1934C17.3689 11.0645 16.7022 11 16 11C15.2978 11 14.6311 11.0645 14 11.1934C13.3689 11.3223 12.8222 11.5023 12.36 11.7334C12.0222 11.9023 11.76 12.0756 11.5733 12.2534C11.4133 12.4134 11.3333 12.5512 11.3333 12.6667C11.3333 12.7823 11.4133 12.92 11.5733 13.08C11.76 13.2578 12.0222 13.4312 12.36 13.6C12.8222 13.8312 13.3689 14.0112 14 14.14C14.6311 14.2689 15.2978 14.3334 16 14.3334Z" fill="#2563EB"/>
</svg>
