<svg width="80" height="69" viewBox="0 0 80 69" fill="none" xmlns="http://www.w3.org/2000/svg">
<path d="M4.80704 43.125C4.80704 39.8283 5.70286 36.7617 7.4945 33.925C9.24348 31.165 11.611 28.9417 14.5971 27.255C15.1516 23.5367 16.6127 20.1442 18.9802 17.0775C21.3477 14.0108 24.3445 11.615 27.9704 9.89C31.7243 8.08833 35.7342 7.1875 40 7.1875C44.2658 7.1875 48.2757 8.08833 52.0296 9.89C55.6555 11.615 58.6523 14.0108 61.0198 17.0775C63.3873 20.1442 64.8484 23.5367 65.4029 27.255C68.389 28.9417 70.7565 31.165 72.5055 33.925C74.2971 36.7617 75.193 39.8092 75.193 43.0675C75.193 46.3258 74.3398 49.3542 72.6335 52.1525C70.9271 54.8742 68.6129 57.0975 65.6909 58.8225C62.7688 60.5475 59.5374 61.525 55.9968 61.755L24.0032 61.8125C20.4626 61.5442 17.2312 60.5475 14.3091 58.8225C11.3871 57.0975 9.07285 54.8742 7.36653 52.1525C5.6602 49.3542 4.80704 46.345 4.80704 43.125ZM55.4849 56.005C57.9591 55.8517 60.2093 55.1808 62.2356 53.9925C64.2618 52.8042 65.8615 51.2517 67.0346 49.335C68.2077 47.4183 68.7942 45.3387 68.7942 43.0962C68.7942 40.8537 68.1864 38.7646 66.9706 36.8287C65.7549 34.8929 64.1018 33.3308 62.0116 32.1425L59.4521 30.705L59.0682 28.0025C58.6416 25.1658 57.5325 22.6071 55.7409 20.3263C53.9492 18.0454 51.6777 16.2437 48.9262 14.9212C46.1748 13.5987 43.1994 12.9375 40 12.9375C36.8006 12.9375 33.8252 13.5987 31.0738 14.9212C28.3223 16.2437 26.0508 18.0454 24.2591 20.3263C22.4675 22.6071 21.3584 25.1658 20.9318 28.0025L20.5479 30.705L17.9884 32.1425C15.8982 33.3308 14.2452 34.8929 13.0294 36.8287C11.8136 38.7646 11.2058 40.8537 11.2058 43.0962C11.2058 45.3387 11.7923 47.4183 12.9654 49.335C14.1385 51.2517 15.7382 52.8042 17.7644 53.9925C19.7907 55.1808 22.0409 55.8517 24.5151 56.005L25.027 56.0625H54.973L55.4849 56.005ZM43.1994 38.8125V50.3125H36.8006V38.8125H27.2026L40 24.4375L52.7974 38.8125H43.1994Z" fill="#2563EB"/>
</svg>
