<svg width="20" height="18" viewBox="0 0 20 18" fill="none" xmlns="http://www.w3.org/2000/svg">
<path d="M3.25 13.875V3.75C3.25 3.34 3.35 2.9625 3.55 2.6175C3.75 2.2725 4.0225 2 4.3675 1.8C4.7125 1.6 5.09 1.5 5.5 1.5H16C16.21 1.5 16.3875 1.5725 16.5325 1.7175C16.6775 1.8625 16.75 2.04 16.75 2.25V15.75C16.75 15.96 16.6775 16.1375 16.5325 16.2825C16.3875 16.4275 16.21 16.5 16 16.5H5.875C5.395 16.5 4.955 16.3825 4.555 16.1475C4.155 15.9125 3.8375 15.595 3.6025 15.195C3.3675 14.795 3.25 14.355 3.25 13.875ZM15.25 15V12.75H5.875C5.565 12.75 5.3 12.86 5.08 13.08C4.86 13.3 4.75 13.565 4.75 13.875C4.75 14.185 4.86 14.45 5.08 14.67C5.3 14.89 5.565 15 5.875 15H15.25ZM4.75 11.505C5.1 11.335 5.475 11.25 5.875 11.25H15.25V3H5.5C5.29 3 5.1125 3.0725 4.9675 3.2175C4.8225 3.3625 4.75 3.54 4.75 3.75V11.505Z" fill="#374151"/>
</svg>
