<svg width="80" height="69" viewBox="0 0 80 69" fill="none" xmlns="http://www.w3.org/2000/svg">
<path d="M65.5883 63.25H14.4117C13.5161 63.25 12.7591 62.9721 12.1407 62.4162C11.5224 61.8604 11.2132 61.18 11.2132 60.375V8.625C11.2132 7.82 11.5224 7.13958 12.1407 6.58375C12.7591 6.02792 13.5161 5.75 14.4117 5.75H65.5883C66.4839 5.75 67.2409 6.02792 67.8593 6.58375C68.4777 7.13958 68.7868 7.82 68.7868 8.625V60.375C68.7868 61.18 68.4777 61.8604 67.8593 62.4162C67.2409 62.9721 66.4839 63.25 65.5883 63.25ZM62.3898 57.5V11.5H17.6102V57.5H62.3898ZM27.2059 20.125H52.7942V25.875H27.2059V20.125ZM27.2059 31.625H52.7942V37.375H27.2059V31.625ZM27.2059 43.125H52.7942V48.875H27.2059V43.125Z" fill="black"/>
</svg>
