<svg width="17" height="16" viewBox="0 0 17 16" fill="none" xmlns="http://www.w3.org/2000/svg">
<path d="M8.33464 14.6667C7.42797 14.6667 6.5613 14.4934 5.73464 14.1467C4.94352 13.809 4.23908 13.3312 3.6213 12.7134C3.00352 12.0956 2.52575 11.3912 2.18797 10.6001C1.8413 9.77341 1.66797 8.90675 1.66797 8.00008C1.66797 7.09341 1.8413 6.22675 2.18797 5.40008C2.52575 4.60897 3.00352 3.90453 3.6213 3.28675C4.23908 2.66897 4.94352 2.19119 5.73464 1.85341C6.5613 1.50675 7.42797 1.33341 8.33464 1.33341C9.2413 1.33341 10.108 1.50675 10.9346 1.85341C11.7257 2.19119 12.4302 2.66897 13.048 3.28675C13.6657 3.90453 14.1435 4.60897 14.4813 5.40008C14.828 6.22675 15.0013 7.09341 15.0013 8.00008C15.0013 8.90675 14.828 9.77341 14.4813 10.6001C14.1435 11.3912 13.6657 12.0956 13.048 12.7134C12.4302 13.3312 11.7257 13.809 10.9346 14.1467C10.108 14.4934 9.2413 14.6667 8.33464 14.6667ZM8.33464 13.3334C9.30352 13.3334 10.2013 13.089 11.028 12.6001C11.828 12.129 12.4635 11.4934 12.9346 10.6934C13.4235 9.86675 13.668 8.96897 13.668 8.00008C13.668 7.03119 13.4235 6.13341 12.9346 5.30675C12.4635 4.50675 11.828 3.87119 11.028 3.40008C10.2013 2.91119 9.30352 2.66675 8.33464 2.66675C7.36575 2.66675 6.46797 2.91119 5.6413 3.40008C4.8413 3.87119 4.20575 4.50675 3.73464 5.30675C3.24575 6.13341 3.0013 7.03119 3.0013 8.00008C3.0013 8.96897 3.24575 9.86675 3.73464 10.6934C4.20575 11.4934 4.8413 12.129 5.6413 12.6001C6.46797 13.089 7.36575 13.3334 8.33464 13.3334ZM7.66797 4.66675H9.0013V6.00008H7.66797V4.66675ZM7.66797 7.33341H9.0013V11.3334H7.66797V7.33341Z" fill="#10B981"/>
</svg>
