<svg width="32" height="32" viewBox="0 0 32 32" fill="none" xmlns="http://www.w3.org/2000/svg">
<rect width="32" height="32" rx="8" fill="#EFEFEF"/>
<path d="M18 10.6667H11.3333V21.3334H20.6667V13.3334H18V10.6667ZM10 10.0001C10 9.81341 10.0644 9.65564 10.1933 9.52675C10.3222 9.39786 10.48 9.33341 10.6667 9.33341H18.6667L22 12.6667V22.0001C22 22.1779 21.9356 22.3334 21.8067 22.4667C21.6778 22.6001 21.52 22.6667 21.3333 22.6667H10.6667C10.48 22.6667 10.3222 22.6023 10.1933 22.4734C10.0644 22.3445 10 22.1867 10 22.0001V10.0001ZM15.3333 18.0001H16.6667V19.3334H15.3333V18.0001ZM15.3333 12.6667H16.6667V16.6667H15.3333V12.6667Z" fill="#DC2626"/>
</svg>
