<svg width="80" height="69" viewBox="0 0 80 69" fill="none" xmlns="http://www.w3.org/2000/svg">
<path d="M43.1994 7.1875V10.8675L59.1962 15.64L70.8418 12.19L72.8254 17.6525L63.1634 20.5275L73.0174 45.0225C71.2684 46.6708 69.1995 47.9646 66.8106 48.9037C64.4218 49.8429 61.8836 50.3125 59.1962 50.3125C56.5087 50.3125 53.9705 49.8429 51.5817 48.9037C49.1928 47.9646 47.1239 46.6708 45.3749 45.0225L55.229 20.5275L43.1994 16.905V56.0625H55.9968V61.8125H24.0032V56.0625H36.8006V16.905L24.771 20.5275L34.6251 45.0225C32.8761 46.6708 30.8072 47.9646 28.4183 48.9037C26.0295 49.8429 23.4913 50.3125 20.8038 50.3125C18.1164 50.3125 15.5782 49.8429 13.1894 48.9037C10.8005 47.9646 8.73159 46.6708 6.9826 45.0225L16.8366 20.5275L7.17457 17.6525L9.15817 12.19L20.8038 15.64L36.8006 10.8675V7.1875H43.1994ZM59.1962 27.6L52.9254 43.0675C54.845 44.0642 56.9353 44.5625 59.1962 44.5625C61.457 44.5625 63.5473 44.0642 65.4669 43.0675L59.1962 27.6ZM20.8038 27.6L14.5331 43.0675C16.4527 44.0642 18.543 44.5625 20.8038 44.5625C23.0647 44.5625 25.155 44.0642 27.0746 43.0675L20.8038 27.6Z" fill="black"/>
</svg>
