<svg width="32" height="32" viewBox="0 0 32 32" fill="none" xmlns="http://www.w3.org/2000/svg">
<rect width="32" height="32" rx="16" fill="#DCFCE7"/>
<path d="M10.6641 23C10.6641 22.0311 10.9085 21.1333 11.3974 20.3067C11.8685 19.5067 12.5041 18.8711 13.3041 18.4C14.1307 17.9111 15.0285 17.6667 15.9974 17.6667C16.9663 17.6667 17.8641 17.9111 18.6907 18.4C19.4907 18.8711 20.1263 19.5067 20.5974 20.3067C21.0863 21.1333 21.3307 22.0311 21.3307 23H19.9974C19.9974 22.28 19.8152 21.6089 19.4507 20.9867C19.0952 20.3822 18.6152 19.9022 18.0107 19.5467C17.3885 19.1822 16.7174 19 15.9974 19C15.2774 19 14.6063 19.1822 13.9841 19.5467C13.3796 19.9022 12.8996 20.3822 12.5441 20.9867C12.1796 21.6089 11.9974 22.28 11.9974 23H10.6641ZM15.9974 17C15.2685 17 14.5974 16.8178 13.9841 16.4533C13.3796 16.0978 12.8996 15.6178 12.5441 15.0133C12.1796 14.4 11.9974 13.7289 11.9974 13C11.9974 12.2711 12.1796 11.6 12.5441 10.9867C12.8996 10.3822 13.3796 9.90222 13.9841 9.54667C14.5974 9.18222 15.2685 9 15.9974 9C16.7263 9 17.3974 9.18222 18.0107 9.54667C18.6152 9.90222 19.0952 10.3822 19.4507 10.9867C19.8152 11.6 19.9974 12.2711 19.9974 13C19.9974 13.7289 19.8152 14.4 19.4507 15.0133C19.0952 15.6178 18.6152 16.0978 18.0107 16.4533C17.3974 16.8178 16.7263 17 15.9974 17ZM15.9974 15.6667C16.4774 15.6667 16.9218 15.5467 17.3307 15.3067C17.7396 15.0667 18.0641 14.7422 18.3041 14.3333C18.5441 13.9244 18.6641 13.48 18.6641 13C18.6641 12.52 18.5441 12.0756 18.3041 11.6667C18.0641 11.2578 17.7396 10.9333 17.3307 10.6933C16.9218 10.4533 16.4774 10.3333 15.9974 10.3333C15.5174 10.3333 15.073 10.4533 14.6641 10.6933C14.2552 10.9333 13.9307 11.2578 13.6907 11.6667C13.4507 12.0756 13.3307 12.52 13.3307 13C13.3307 13.48 13.4507 13.9244 13.6907 14.3333C13.9307 14.7422 14.2552 15.0667 14.6641 15.3067C15.073 15.5467 15.5174 15.6667 15.9974 15.6667Z" fill="#16A34A"/>
</svg>
