<svg width="80" height="69" viewBox="0 0 80 69" fill="none" xmlns="http://www.w3.org/2000/svg">
<path d="M68.7868 54.625H75.1839V60.375H4.81609V54.625H11.2132V11.5C11.2132 10.695 11.5224 10.0146 12.1407 9.45875C12.7591 8.90292 13.5161 8.625 14.4117 8.625H46.3971C47.2927 8.625 48.0497 8.90292 48.668 9.45875C49.2864 10.0146 49.5956 10.695 49.5956 11.5V54.625H62.3898V31.625H55.9927V25.875H65.5883C66.4839 25.875 67.2409 26.1529 67.8593 26.7087C68.4776 27.2646 68.7868 27.945 68.7868 28.75V54.625ZM17.6102 14.375V54.625H43.1985V14.375H17.6102ZM24.0073 31.625H36.8015V37.375H24.0073V31.625ZM24.0073 20.125H36.8015V25.875H24.0073V20.125Z" fill="black"/>
</svg>
