<svg width="18" height="16" viewBox="0 0 18 16" fill="none" xmlns="http://www.w3.org/2000/svg">
<path d="M8.69271 0.666707L15.026 4.33337V11.6667L8.69271 15.3334L2.35938 11.6667V4.33337L8.69271 0.666707ZM8.69271 2.21337L3.69271 5.10671V10.8934L8.69271 13.7867L13.6927 10.8934V5.10671L8.69271 2.21337ZM8.69271 10.6667C8.21271 10.6667 7.76826 10.5467 7.35938 10.3067C6.95049 10.0667 6.62604 9.74226 6.38604 9.33337C6.14604 8.92449 6.02604 8.48004 6.02604 8.00004C6.02604 7.52004 6.14604 7.0756 6.38604 6.66671C6.62604 6.25782 6.95049 5.93337 7.35938 5.69337C7.76826 5.45337 8.21271 5.33337 8.69271 5.33337C9.17271 5.33337 9.61715 5.45337 10.026 5.69337C10.4349 5.93337 10.7594 6.25782 10.9994 6.66671C11.2394 7.0756 11.3594 7.52004 11.3594 8.00004C11.3594 8.48004 11.2394 8.92449 10.9994 9.33337C10.7594 9.74226 10.4349 10.0667 10.026 10.3067C9.61715 10.5467 9.17271 10.6667 8.69271 10.6667ZM8.69271 9.33337C8.93271 9.33337 9.15493 9.27337 9.35938 9.15337C9.56382 9.03337 9.72604 8.87115 9.84604 8.66671C9.96604 8.46226 10.026 8.24004 10.026 8.00004C10.026 7.76004 9.96604 7.53782 9.84604 7.33337C9.72604 7.12893 9.56382 6.96671 9.35938 6.84671C9.15493 6.72671 8.93271 6.66671 8.69271 6.66671C8.45271 6.66671 8.23049 6.72671 8.02604 6.84671C7.8216 6.96671 7.65938 7.12893 7.53938 7.33337C7.41937 7.53782 7.35938 7.76004 7.35938 8.00004C7.35938 8.24004 7.41937 8.46226 7.53938 8.66671C7.65938 8.87115 7.8216 9.03337 8.02604 9.15337C8.23049 9.27337 8.45271 9.33337 8.69271 9.33337Z" fill="#374151"/>
</svg>
