<svg width="18" height="24" viewBox="0 0 18 24" fill="none" xmlns="http://www.w3.org/2000/svg">
<path d="M15 9.33329V18C15 18.1866 14.9356 18.3444 14.8067 18.4733C14.6778 18.6022 14.52 18.6666 14.3333 18.6666H3.66667C3.48 18.6666 3.32222 18.6022 3.19333 18.4733C3.06444 18.3444 3 18.1866 3 18V5.99996C3 5.81329 3.06444 5.65551 3.19333 5.52663C3.32222 5.39774 3.48 5.33329 3.66667 5.33329H11L15 9.33329ZM13.6667 9.99996H10.3333V6.66663H4.33333V17.3333H13.6667V9.99996ZM6.33333 8.66663H8.33333V9.99996H6.33333V8.66663ZM6.33333 11.3333H11.6667V12.6666H6.33333V11.3333ZM6.33333 14H11.6667V15.3333H6.33333V14Z" fill="#2563EB"/>
</svg>
