<svg width="18" height="24" viewBox="0 0 18 24" fill="none" xmlns="http://www.w3.org/2000/svg">
<path d="M9.8 12L11.6667 14.6666H10.0667L9 13.1466L7.93333 14.6666H6.33333L8.2 12L6.33333 9.33329H7.93333L9 10.8533L10.0667 9.33329H11V6.66663H4.33333V17.3333H13.6667V9.33329H11.6667L9.8 12ZM3 5.99996C3 5.81329 3.06444 5.65551 3.19333 5.52663C3.32222 5.39774 3.48 5.33329 3.66667 5.33329H11.6667L15 8.66663V18C15 18.1777 14.9356 18.3333 14.8067 18.4666C14.6778 18.6 14.52 18.6666 14.3333 18.6666H3.66667C3.48 18.6666 3.32222 18.6022 3.19333 18.4733C3.06444 18.3444 3 18.1866 3 18V5.99996Z" fill="#16A34A"/>
</svg>
