<svg width="18" height="16" viewBox="0 0 18 16" fill="none" xmlns="http://www.w3.org/2000/svg">
<path d="M11 2.66663H4.33333V13.3333H13.6667V5.33329H11V2.66663ZM3 1.99996C3 1.81329 3.06444 1.65551 3.19333 1.52663C3.32222 1.39774 3.48 1.33329 3.66667 1.33329H11.6667L15 4.66663V14C15 14.1777 14.9356 14.3333 14.8067 14.4666C14.6778 14.6 14.52 14.6666 14.3333 14.6666H3.66667C3.48 14.6666 3.32222 14.6022 3.19333 14.4733C3.06444 14.3444 3 14.1866 3 14V1.99996ZM12.7733 7.99996L10.4133 10.36L9.46667 9.41329L10.88 7.99996L9.46667 6.58663L10.4133 5.63996L12.7733 7.99996ZM5.22667 7.99996L7.58667 5.63996L8.53333 6.58663L7.12 7.99996L8.53333 9.41329L7.58667 10.36L5.22667 7.99996Z" fill="#9333EA"/>
</svg>
