<svg width="22" height="20" viewBox="0 0 22 20" fill="none" xmlns="http://www.w3.org/2000/svg">
<path d="M8.86458 1.66665V3.33331H13.8646V1.66665H15.5313V3.33331H18.8646C19.0979 3.33331 19.2951 3.41387 19.4563 3.57498C19.6174 3.73609 19.6979 3.93331 19.6979 4.16665V17.5C19.6979 17.7333 19.6174 17.9305 19.4563 18.0916C19.2951 18.2528 19.0979 18.3333 18.8646 18.3333H3.86458C3.63125 18.3333 3.43403 18.2528 3.27292 18.0916C3.11181 17.9305 3.03125 17.7333 3.03125 17.5V4.16665C3.03125 3.93331 3.11181 3.73609 3.27292 3.57498C3.43403 3.41387 3.63125 3.33331 3.86458 3.33331H7.19792V1.66665H8.86458ZM18.0313 9.99998H4.69792V16.6666H18.0313V9.99998ZM7.19792 4.99998H4.69792V8.33331H18.0313V4.99998H15.5313V6.66665H13.8646V4.99998H8.86458V6.66665H7.19792V4.99998Z" fill="#9333EA"/>
</svg>
