<svg width="18" height="16" viewBox="0 0 18 16" fill="none" xmlns="http://www.w3.org/2000/svg">
<path d="M5.39002 2.33471V1.00057H6.72415V2.33471H10.7266V1.00057H12.0607V2.33471H14.729C14.9157 2.33471 15.0736 2.39919 15.2026 2.52816C15.3315 2.65712 15.396 2.81499 15.396 3.00177V6.33711H14.0619V3.66884H12.0607V5.00297H10.7266V3.66884H6.72415V5.00297H5.39002V3.66884H3.38882V13.0078H7.39122V14.3419H2.72175C2.53498 14.3419 2.3771 14.2774 2.24814 14.1485C2.11917 14.0195 2.05469 13.8616 2.05469 13.6748V3.00177C2.05469 2.81499 2.11917 2.65712 2.24814 2.52816C2.3771 2.39919 2.53498 2.33471 2.72175 2.33471H5.39002ZM12.0607 8.33831C11.5804 8.33831 11.1357 8.45838 10.7266 8.69852C10.3174 8.93867 9.99278 9.26331 9.75264 9.67244C9.51249 10.0816 9.39242 10.5263 9.39242 11.0066C9.39242 11.4869 9.51249 11.9316 9.75264 12.3407C9.99278 12.7498 10.3174 13.0745 10.7266 13.3146C11.1357 13.5548 11.5804 13.6748 12.0607 13.6748C12.541 13.6748 12.9857 13.5548 13.3948 13.3146C13.804 13.0745 14.1286 12.7498 14.3687 12.3407C14.6089 11.9316 14.729 11.4869 14.729 11.0066C14.729 10.5263 14.6089 10.0816 14.3687 9.67244C14.1286 9.26331 13.804 8.93867 13.3948 8.69852C12.9857 8.45838 12.541 8.33831 12.0607 8.33831ZM8.05829 11.0066C8.05829 10.2861 8.24062 9.61463 8.60528 8.99203C8.96105 8.38722 9.44134 7.90694 10.0461 7.55117C10.6687 7.1865 11.3403 7.00417 12.0607 7.00417C12.7811 7.00417 13.4526 7.1865 14.0752 7.55117C14.68 7.90694 15.1603 8.38722 15.5161 8.99203C15.8808 9.61463 16.0631 10.2861 16.0631 11.0066C16.0631 11.727 15.8808 12.3985 15.5161 13.0211C15.1603 13.6259 14.68 14.1062 14.0752 14.462C13.4526 14.8266 12.7811 15.009 12.0607 15.009C11.3403 15.009 10.6687 14.8266 10.0461 14.462C9.44134 14.1062 8.96105 13.6259 8.60528 13.0211C8.24062 12.3985 8.05829 11.727 8.05829 11.0066ZM11.3936 9.00537V11.2867L12.9279 12.8077L13.8618 11.8738L12.7278 10.7264V9.00537H11.3936Z" fill="#374151"/>
</svg>
