<svg width="32" height="31" viewBox="0 0 32 31" fill="none" xmlns="http://www.w3.org/2000/svg">
<path d="M16.0002 14.249C17.1342 14.249 18.1807 14.5284 19.1397 15.087C20.0986 15.6457 20.8575 16.4046 21.4162 17.3635C21.9748 18.3225 22.2542 19.369 22.2542 20.503V28.0078H19.7526V20.503C19.7526 19.8526 19.5942 19.248 19.2773 18.6894C18.9604 18.1307 18.5351 17.6804 18.0015 17.3385C17.4678 16.9966 16.8757 16.8006 16.2253 16.7506H16.0002C15.3498 16.7506 14.7452 16.909 14.1865 17.2259C13.6278 17.5428 13.1775 17.9681 12.8357 18.5017C12.4938 19.0354 12.2978 19.6275 12.2478 20.2779V28.0078H9.74619V20.503C9.74619 19.369 10.0255 18.3225 10.5842 17.3635C11.1429 16.4046 11.9017 15.6457 12.8607 15.087C13.8196 14.5284 14.8661 14.249 16.0002 14.249ZM7.86999 18.0014C8.22021 18.0014 8.5621 18.0431 8.89564 18.1265C8.67884 18.7602 8.54542 19.4106 8.49539 20.0777V20.6031C8.34529 20.553 8.1952 20.5197 8.0451 20.503H7.86999C7.38634 20.503 6.96524 20.6656 6.60668 20.9908C6.24812 21.316 6.04382 21.7205 5.99379 22.2041V22.3792V28.0078H3.49219V22.3792C3.49219 21.5787 3.68815 20.8449 4.08006 20.1778C4.47198 19.5107 5.00149 18.9812 5.66858 18.5893C6.33567 18.1974 7.06948 18.0014 7.86999 18.0014ZM24.1304 18.0014C24.9309 18.0014 25.6647 18.1974 26.3318 18.5893C26.9989 18.9812 27.5284 19.5107 27.9203 20.1778C28.3122 20.8449 28.5082 21.5787 28.5082 22.3792V28.0078H26.0066V22.3792C26.0066 21.8956 25.844 21.4745 25.5188 21.1159C25.1936 20.7573 24.7891 20.553 24.3055 20.503H24.1304C23.9136 20.503 23.7051 20.5364 23.505 20.6031V20.503C23.505 19.6858 23.3799 18.8936 23.1297 18.1265C23.4466 18.0431 23.7802 18.0014 24.1304 18.0014ZM7.86999 10.4966C8.43702 10.4966 8.95818 10.6384 9.43349 10.9219C9.90879 11.2054 10.2882 11.5848 10.5717 12.0601C10.8552 12.5354 10.997 13.0566 10.997 13.6236C10.997 14.1906 10.8552 14.7118 10.5717 15.1871C10.2882 15.6624 9.90879 16.0418 9.43349 16.3253C8.95818 16.6089 8.43702 16.7506 7.86999 16.7506C7.30296 16.7506 6.78179 16.6089 6.30649 16.3253C5.83118 16.0418 5.45177 15.6624 5.16826 15.1871C4.88474 14.7118 4.74299 14.1906 4.74299 13.6236C4.74299 13.0566 4.88474 12.5354 5.16826 12.0601C5.45177 11.5848 5.83118 11.2054 6.30649 10.9219C6.78179 10.6384 7.30296 10.4966 7.86999 10.4966ZM24.1304 10.4966C24.6974 10.4966 25.2186 10.6384 25.6939 10.9219C26.1692 11.2054 26.5486 11.5848 26.8321 12.0601C27.1156 12.5354 27.2574 13.0566 27.2574 13.6236C27.2574 14.1906 27.1156 14.7118 26.8321 15.1871C26.5486 15.6624 26.1692 16.0418 25.6939 16.3253C25.2186 16.6089 24.6974 16.7506 24.1304 16.7506C23.5634 16.7506 23.0422 16.6089 22.5669 16.3253C22.0916 16.0418 21.7122 15.6624 21.4287 15.1871C21.1451 14.7118 21.0034 14.1906 21.0034 13.6236C21.0034 13.0566 21.1451 12.5354 21.4287 12.0601C21.7122 11.5848 22.0916 11.2054 22.5669 10.9219C23.0422 10.6384 23.5634 10.4966 24.1304 10.4966ZM7.86999 12.9982C7.70321 12.9982 7.55729 13.0608 7.43221 13.1858C7.30713 13.3109 7.24459 13.4568 7.24459 13.6236C7.24459 13.7904 7.30713 13.9363 7.43221 14.0614C7.55729 14.1865 7.70321 14.249 7.86999 14.249C8.03676 14.249 8.18269 14.1865 8.30777 14.0614C8.43285 13.9363 8.49539 13.7904 8.49539 13.6236C8.49539 13.4568 8.43285 13.3109 8.30777 13.1858C8.18269 13.0608 8.03676 12.9982 7.86999 12.9982ZM24.1304 12.9982C23.9636 12.9982 23.8177 13.0608 23.6926 13.1858C23.5675 13.3109 23.505 13.4568 23.505 13.6236C23.505 13.7904 23.5675 13.9363 23.6926 14.0614C23.8177 14.1865 23.9636 14.249 24.1304 14.249C24.2972 14.249 24.4431 14.1865 24.5682 14.0614C24.6932 13.9363 24.7558 13.7904 24.7558 13.6236C24.7558 13.4568 24.6932 13.3109 24.5682 13.1858C24.4431 13.0608 24.2972 12.9982 24.1304 12.9982ZM16.0002 2.99181C16.9008 2.99181 17.7346 3.21696 18.5018 3.66724C19.2689 4.11753 19.8777 4.72625 20.328 5.49341C20.7782 6.26057 21.0034 7.09444 21.0034 7.99501C21.0034 8.89559 20.7782 9.72945 20.328 10.4966C19.8777 11.2638 19.2689 11.8725 18.5018 12.3228C17.7346 12.7731 16.9008 12.9982 16.0002 12.9982C15.0996 12.9982 14.2657 12.7731 13.4986 12.3228C12.7314 11.8725 12.1227 11.2638 11.6724 10.4966C11.2221 9.72945 10.997 8.89559 10.997 7.99501C10.997 7.09444 11.2221 6.26057 11.6724 5.49341C12.1227 4.72625 12.7314 4.11753 13.4986 3.66724C14.2657 3.21696 15.0996 2.99181 16.0002 2.99181ZM16.0002 5.49341C15.5499 5.49341 15.133 5.60598 14.7494 5.83113C14.3658 6.05627 14.0614 6.36063 13.8363 6.74421C13.6112 7.12779 13.4986 7.54472 13.4986 7.99501C13.4986 8.4453 13.6112 8.86223 13.8363 9.24581C14.0614 9.62939 14.3658 9.93375 14.7494 10.1589C15.133 10.384 15.5499 10.4966 16.0002 10.4966C16.4505 10.4966 16.8674 10.384 17.251 10.1589C17.6346 9.93375 17.9389 9.62939 18.1641 9.24581C18.3892 8.86223 18.5018 8.4453 18.5018 7.99501C18.5018 7.54472 18.3892 7.12779 18.1641 6.74421C17.9389 6.36063 17.6346 6.05627 17.251 5.83113C16.8674 5.60598 16.4505 5.49341 16.0002 5.49341Z" fill="#2563EB"/>
</svg>
