<svg width="32" height="31" viewBox="0 0 32 31" fill="none" xmlns="http://www.w3.org/2000/svg">
<path d="M25.6682 7.99791H29.4194V10.4987H28.169V24.2531H29.4194V26.7539H1.91064V24.2531H3.16104V10.4987H1.91064V7.99791H5.66184V5.49711C5.66184 5.14699 5.78272 4.85107 6.02446 4.60932C6.2662 4.36758 6.56213 4.24671 6.91224 4.24671H24.4178C24.768 4.24671 25.0639 4.36758 25.3056 4.60932C25.5474 4.85107 25.6682 5.14699 25.6682 5.49711V7.99791ZM25.6682 10.4987H5.66184V24.2531H9.41304V15.5003H11.9138V24.2531H14.4146V15.5003H16.9154V24.2531H19.4162V15.5003H21.917V24.2531H25.6682V10.4987ZM8.16264 6.74751V7.99791H23.1674V6.74751H8.16264Z" fill="#9333EA"/>
</svg>
