<svg width="35" height="35" viewBox="0 0 35 35" fill="none" xmlns="http://www.w3.org/2000/svg">
<path d="M29.7187 4.37797V7.12997C29.7187 11.3864 28.9665 15.0099 27.462 18.0004C26.0677 20.7891 24.0954 22.8989 21.5452 24.33C19.1235 25.706 16.344 26.394 13.2067 26.394H8.03292C7.81276 27.6415 7.70268 29.0175 7.70268 30.522H4.95068C4.95068 28.6506 5.10663 26.9352 5.41852 25.3757C5.10663 23.5961 4.95068 21.1835 4.95068 18.138C4.95068 16.2666 5.30844 14.4778 6.02396 12.7716C6.72114 11.1387 7.70727 9.68475 8.98236 8.40965C10.2575 7.13456 11.7114 6.14843 13.3443 5.45125C15.0505 4.73573 16.8393 4.37797 18.7107 4.37797C19.2611 4.37797 20.1234 4.46971 21.2976 4.65317C22.2516 4.79995 23.0038 4.89168 23.5542 4.92837C24.4899 5.00176 25.4072 5.01093 26.3062 4.95589C27.3887 4.86416 28.5262 4.67152 29.7187 4.37797ZM18.7107 7.12997C16.7109 7.12997 14.8579 7.63451 13.1516 8.64357C11.5004 9.61595 10.1887 10.9277 9.21628 12.5789C8.20722 14.2852 7.70268 16.1382 7.70268 18.138V19.569C8.54663 18.2481 9.61074 17.0188 10.895 15.8813C12.1242 14.7989 13.5828 13.7806 15.2707 12.8266L16.6467 15.1933C14.6102 16.3675 12.9682 17.6059 11.7206 18.9085C10.3996 20.2845 9.4181 21.8623 8.77596 23.642H13.2067C15.977 23.642 18.385 23.0365 20.4307 21.8257C22.4763 20.6148 24.0496 18.8351 25.1504 16.4868C26.3062 14.0467 26.9116 11.102 26.9667 7.65285C26.0494 7.74459 25.1137 7.77211 24.1596 7.73541C23.2974 7.68037 22.2975 7.57029 21.16 7.40517C20.3527 7.27675 19.8115 7.19877 19.5363 7.17125C19.2611 7.14373 18.9859 7.12997 18.7107 7.12997Z" fill="#16A34A"/>
</svg>
