<svg width="60" height="69" viewBox="0 0 60 69" fill="none" xmlns="http://www.w3.org/2000/svg">
<path d="M3.04979 51.7328C1.72199 49.2053 0.705394 46.54 0 43.7368C1.53527 42.8636 2.76971 41.5999 3.70332 39.9456C4.63693 38.2912 5.10373 36.476 5.10373 34.5C5.10373 32.524 4.63693 30.7088 3.70332 29.0544C2.76971 27.4001 1.53527 26.1364 0 25.2632C1.45228 19.519 4.04564 14.533 7.78008 10.3052C9.23237 11.3621 10.8402 11.9251 12.6037 11.994C14.3672 12.0629 16.0166 11.6034 17.5519 10.6154C19.0871 9.62737 20.2697 8.27173 21.0996 6.54846C21.9295 4.82518 22.3029 3.02148 22.2199 1.13737C27.4066 -0.379118 32.5934 -0.379118 37.7801 1.13737C37.6971 3.02148 38.0705 4.82518 38.9004 6.54846C39.7303 8.27173 40.9129 9.62737 42.4481 10.6154C43.9834 11.6034 45.6328 12.0629 47.3963 11.994C49.1598 11.9251 50.7676 11.3621 52.2199 10.3052C54.0456 12.4191 55.6224 14.7398 56.9502 17.2672C58.278 19.7947 59.2946 22.46 60 25.2632C58.4647 26.1364 57.2303 27.4001 56.2967 29.0544C55.3631 30.7088 54.8963 32.524 54.8963 34.5C54.8963 36.476 55.3631 38.2912 56.2967 39.9456C57.2303 41.5999 58.4647 42.8636 60 43.7368C58.5477 49.481 55.9544 54.467 52.2199 58.6948C50.7676 57.6379 49.1598 57.0749 47.3963 57.006C45.6328 56.9371 43.9834 57.3966 42.4481 58.3846C40.9129 59.3726 39.7303 60.7283 38.9004 62.4515C38.0705 64.1748 37.6971 65.9785 37.7801 67.8626C32.5934 69.3791 27.4066 69.3791 22.2199 67.8626C22.3029 65.9785 21.9295 64.1748 21.0996 62.4515C20.2697 60.7283 19.0871 59.3726 17.5519 58.3846C16.0166 57.3966 14.3672 56.9371 12.6037 57.006C10.8402 57.0749 9.23237 57.6379 7.78008 58.6948C5.95436 56.5809 4.37759 54.2602 3.04979 51.7328ZM20.6639 52.4221C22.3237 53.479 23.7552 54.8347 24.9585 56.489C26.1618 58.1434 27.0747 59.9585 27.6971 61.9346C29.2324 62.1184 30.7676 62.1184 32.3029 61.9346C32.9253 59.9585 33.8278 58.1434 35.0104 56.489C36.1929 54.8347 37.6245 53.4675 39.305 52.3876C40.9855 51.3077 42.7801 50.6069 44.6888 50.2852C46.5975 49.9635 48.4647 50.0325 50.2905 50.492C51.2033 49.0674 51.9917 47.5739 52.6556 46.0115C51.3693 44.4491 50.3838 42.6798 49.6992 40.7038C49.0145 38.7278 48.6722 36.6598 48.6722 34.5C48.6722 32.3402 49.0145 30.2722 49.6992 28.2962C50.3838 26.3202 51.3693 24.5509 52.6556 22.9885C52.3237 22.2073 51.9606 21.4491 51.5664 20.7138C51.1722 19.9785 50.7469 19.2433 50.2905 18.508C48.4647 18.9675 46.5975 19.0365 44.6888 18.7148C42.7801 18.3931 40.9959 17.6923 39.3361 16.6124C37.6764 15.5325 36.2448 14.1653 35.0415 12.511C33.8382 10.8566 32.9253 9.04146 32.3029 7.06544C30.7676 6.88162 29.2324 6.88162 27.6971 7.06544C27.0747 9.04146 26.1722 10.8566 24.9896 12.511C23.8071 14.1653 22.3651 15.5325 20.6639 16.6124C18.9627 17.6923 17.168 18.3931 15.2801 18.7148C13.3921 19.0365 11.5353 18.9675 9.70954 18.508C8.79668 19.9326 8.0083 21.4261 7.3444 22.9885C8.63071 24.5509 9.61618 26.3202 10.3008 28.2962C10.9855 30.2722 11.3278 32.3402 11.3278 34.5C11.3278 36.6598 10.9855 38.7278 10.3008 40.7038C9.61618 42.6798 8.63071 44.4491 7.3444 46.0115C7.67635 46.7927 8.03942 47.551 8.43361 48.2862C8.8278 49.0215 9.25311 49.7567 9.70954 50.492C11.5353 50.0325 13.4025 49.9635 15.3112 50.2852C17.2199 50.6069 19.0041 51.3192 20.6639 52.4221ZM30 44.8397C28.2988 44.8397 26.7324 44.3801 25.3008 43.461C23.8693 42.542 22.7386 41.2897 21.9087 39.7043C21.0788 38.1189 20.6639 36.3841 20.6639 34.5C20.6639 32.6159 21.0788 30.8811 21.9087 29.2957C22.7386 27.7103 23.8693 26.458 25.3008 25.539C26.7324 24.6199 28.2988 24.1603 30 24.1603C31.7012 24.1603 33.2676 24.6199 34.6992 25.539C36.1307 26.458 37.2614 27.7103 38.0913 29.2957C38.9212 30.8811 39.3361 32.6159 39.3361 34.5C39.3361 36.3841 38.9212 38.1189 38.0913 39.7043C37.2614 41.2897 36.1307 42.542 34.6992 43.461C33.2676 44.3801 31.7012 44.8397 30 44.8397ZM30 37.9466C30.8714 37.9466 31.6079 37.6134 32.2095 36.9471C32.8112 36.2807 33.112 35.465 33.112 34.5C33.112 33.535 32.8112 32.7193 32.2095 32.0529C31.6079 31.3866 30.8714 31.0534 30 31.0534C29.1286 31.0534 28.3921 31.3866 27.7905 32.0529C27.1888 32.7193 26.888 33.535 26.888 34.5C26.888 35.465 27.1888 36.2807 27.7905 36.9471C28.3921 37.6134 29.1286 37.9466 30 37.9466Z" fill="black"/>
</svg>
