<svg width="32" height="32" viewBox="0 0 32 32" fill="none" xmlns="http://www.w3.org/2000/svg">
<rect width="32" height="32" rx="8" fill="#DCFCE7"/>
<path d="M22 13.3334V22.0001C22 22.1867 21.9356 22.3445 21.8067 22.4734C21.6778 22.6023 21.52 22.6667 21.3333 22.6667H10.6667C10.48 22.6667 10.3222 22.6023 10.1933 22.4734C10.0644 22.3445 10 22.1867 10 22.0001V10.0001C10 9.81341 10.0644 9.65564 10.1933 9.52675C10.3222 9.39786 10.48 9.33341 10.6667 9.33341H18L22 13.3334ZM20.6667 14.0001H17.3333V10.6667H11.3333V21.3334H20.6667V14.0001ZM13.3333 12.6667H15.3333V14.0001H13.3333V12.6667ZM13.3333 15.3334H18.6667V16.6667H13.3333V15.3334ZM13.3333 18.0001H18.6667V19.3334H13.3333V18.0001Z" fill="#2563EB"/>
</svg>
