<svg width="80" height="69" viewBox="0 0 80 69" fill="none" xmlns="http://www.w3.org/2000/svg">
<path d="M40 31.625C42.9007 31.625 45.5775 32.2671 48.0304 33.5512C50.4832 34.8354 52.4242 36.5796 53.8532 38.7837C55.2823 40.9879 55.9968 43.3933 55.9968 46V63.25H49.5981V46C49.5981 44.505 49.1928 43.1154 48.3823 41.8312C47.5718 40.5471 46.484 39.5121 45.119 38.7262C43.7539 37.9404 42.2395 37.49 40.5759 37.375H40C38.3363 37.375 36.79 37.7392 35.3609 38.4675C33.9319 39.1958 32.7801 40.1733 31.9056 41.4C31.0311 42.6267 30.5299 43.9875 30.4019 45.4825V63.25H24.0032V46C24.0032 43.3933 24.7177 40.9879 26.1468 38.7837C27.5758 36.5796 29.5168 34.8354 31.9696 33.5512C34.4224 32.2671 37.0992 31.625 40 31.625ZM19.2042 40.25C20.1 40.25 20.9745 40.3458 21.8276 40.5375C21.2731 41.9942 20.9318 43.4892 20.8038 45.0225V46.23C20.4199 46.115 20.036 46.0383 19.6521 46H19.2042C17.9671 46 16.89 46.3737 15.9728 47.1212C15.0557 47.8687 14.5331 48.7983 14.4051 49.91V50.3125V63.25H8.00639V50.3125C8.00639 48.4725 8.50763 46.7858 9.51009 45.2525C10.5126 43.7192 11.867 42.5021 13.5733 41.6012C15.2796 40.7004 17.1566 40.25 19.2042 40.25ZM60.7958 40.25C62.8434 40.25 64.7204 40.7004 66.4267 41.6012C68.133 42.5021 69.4874 43.7192 70.4899 45.2525C71.4924 46.7858 71.9936 48.4725 71.9936 50.3125V63.25H65.5949V50.3125C65.5949 49.2008 65.179 48.2329 64.3471 47.4087C63.5153 46.5846 62.4808 46.115 61.2437 46H60.7958C60.2413 46 59.7081 46.0767 59.1962 46.23V46C59.1962 44.1217 58.8762 42.3008 58.2363 40.5375C59.0469 40.3458 59.9 40.25 60.7958 40.25ZM19.2042 23C20.6545 23 21.9876 23.3258 23.2034 23.9775C24.4191 24.6292 25.3896 25.5012 26.1148 26.5937C26.84 27.6862 27.2026 28.8842 27.2026 30.1875C27.2026 31.4908 26.84 32.6887 26.1148 33.7812C25.3896 34.8737 24.4191 35.7458 23.2034 36.3975C21.9876 37.0492 20.6545 37.375 19.2042 37.375C17.7538 37.375 16.4207 37.0492 15.205 36.3975C13.9892 35.7458 13.0187 34.8737 12.2935 33.7812C11.5683 32.6887 11.2058 31.4908 11.2058 30.1875C11.2058 28.8842 11.5683 27.6862 12.2935 26.5937C13.0187 25.5012 13.9892 24.6292 15.205 23.9775C16.4207 23.3258 17.7538 23 19.2042 23ZM60.7958 23C62.2462 23 63.5793 23.3258 64.795 23.9775C66.0108 24.6292 66.9813 25.5012 67.7065 26.5937C68.4316 27.6862 68.7942 28.8842 68.7942 30.1875C68.7942 31.4908 68.4316 32.6887 67.7065 33.7812C66.9813 34.8737 66.0108 35.7458 64.795 36.3975C63.5793 37.0492 62.2462 37.375 60.7958 37.375C59.3455 37.375 58.0124 37.0492 56.7966 36.3975C55.5809 35.7458 54.6104 34.8737 53.8852 33.7812C53.16 32.6887 52.7974 31.4908 52.7974 30.1875C52.7974 28.8842 53.16 27.6862 53.8852 26.5937C54.6104 25.5012 55.5809 24.6292 56.7966 23.9775C58.0124 23.3258 59.3455 23 60.7958 23ZM19.2042 28.75C18.7776 28.75 18.4043 28.8937 18.0844 29.1812C17.7644 29.4687 17.6045 29.8042 17.6045 30.1875C17.6045 30.5708 17.7644 30.9062 18.0844 31.1937C18.4043 31.4812 18.7776 31.625 19.2042 31.625C19.6307 31.625 20.004 31.4812 20.3239 31.1937C20.6439 30.9062 20.8038 30.5708 20.8038 30.1875C20.8038 29.8042 20.6439 29.4687 20.3239 29.1812C20.004 28.8937 19.6307 28.75 19.2042 28.75ZM60.7958 28.75C60.3693 28.75 59.996 28.8937 59.6761 29.1812C59.3561 29.4687 59.1962 29.8042 59.1962 30.1875C59.1962 30.5708 59.3561 30.9062 59.6761 31.1937C59.996 31.4812 60.3693 31.625 60.7958 31.625C61.2224 31.625 61.5957 31.4812 61.9156 31.1937C62.2355 30.9062 62.3955 30.5708 62.3955 30.1875C62.3955 29.8042 62.2355 29.4687 61.9156 29.1812C61.5957 28.8937 61.2224 28.75 60.7958 28.75ZM40 5.75C42.3035 5.75 44.4364 6.2675 46.3987 7.3025C48.361 8.3375 49.918 9.73666 51.0698 11.5C52.2216 13.2633 52.7974 15.18 52.7974 17.25C52.7974 19.32 52.2216 21.2367 51.0698 23C49.918 24.7633 48.361 26.1625 46.3987 27.1975C44.4364 28.2325 42.3035 28.75 40 28.75C37.6965 28.75 35.5635 28.2325 33.6013 27.1975C31.639 26.1625 30.082 24.7633 28.9302 23C27.7784 21.2367 27.2026 19.32 27.2026 17.25C27.2026 15.18 27.7784 13.2633 28.9302 11.5C30.082 9.73666 31.639 8.3375 33.6013 7.3025C35.5635 6.2675 37.6965 5.75 40 5.75ZM40 11.5C38.8482 11.5 37.7818 11.7587 36.8006 12.2762C35.8195 12.7937 35.041 13.4933 34.4651 14.375C33.8892 15.2567 33.6013 16.215 33.6013 17.25C33.6013 18.285 33.8892 19.2433 34.4651 20.125C35.041 21.0067 35.8195 21.7062 36.8006 22.2237C37.7818 22.7412 38.8482 23 40 23C41.1518 23 42.2182 22.7412 43.1994 22.2237C44.1805 21.7062 44.959 21.0067 45.5349 20.125C46.1108 19.2433 46.3987 18.285 46.3987 17.25C46.3987 16.215 46.1108 15.2567 45.5349 14.375C44.959 13.4933 44.1805 12.7937 43.1994 12.2762C42.2182 11.7587 41.1518 11.5 40 11.5Z" fill="black"/>
</svg>
