<svg width="32" height="32" viewBox="0 0 32 32" fill="none" xmlns="http://www.w3.org/2000/svg">
<rect width="32" height="32" rx="8" fill="#DCFCE7"/>
<path d="M16.8 16.0001L18.6667 18.6667H17.0667L16 17.1467L14.9333 18.6667H13.3333L15.2 16.0001L13.3333 13.3334H14.9333L16 14.8534L17.0667 13.3334H18V10.6667H11.3333V21.3334H20.6667V13.3334H18.6667L16.8 16.0001ZM10 10.0001C10 9.81341 10.0644 9.65564 10.1933 9.52675C10.3222 9.39786 10.48 9.33341 10.6667 9.33341H18.6667L22 12.6667V22.0001C22 22.1779 21.9356 22.3334 21.8067 22.4667C21.6778 22.6001 21.52 22.6667 21.3333 22.6667H10.6667C10.48 22.6667 10.3222 22.6023 10.1933 22.4734C10.0644 22.3445 10 22.1867 10 22.0001V10.0001Z" fill="#16A34A"/>
</svg>
