<svg width="80" height="69" viewBox="0 0 80 69" fill="none" xmlns="http://www.w3.org/2000/svg">
<path d="M55.9992 45.7958C57.7485 45.7958 59.3592 46.1723 60.8312 46.9253C62.3032 47.6784 63.4659 48.7044 64.3192 50.0034C65.1725 51.3024 65.5992 52.7238 65.5992 54.2675C65.5992 55.8113 65.1725 57.2326 64.3192 58.5316C63.4659 59.8306 62.3032 60.8566 60.8312 61.6097C59.3592 62.3627 57.7485 62.7393 55.9992 62.7393C54.2499 62.7393 52.6392 62.3627 51.1672 61.6097C49.6952 60.8566 48.5325 59.8306 47.6792 58.5316C46.8259 57.2326 46.3992 55.8113 46.3992 54.2675C46.3992 52.7238 46.8259 51.3024 47.6792 50.0034C48.5325 48.7044 49.6952 47.6784 51.1672 46.9253C52.6392 46.1723 54.2499 45.7958 55.9992 45.7958ZM23.9992 34.5001C26.3032 34.5001 28.4366 35.0084 30.3992 36.025C32.3619 37.0416 33.9192 38.4159 35.0712 40.1479C36.2232 41.8799 36.7992 43.7625 36.7992 45.7958C36.7992 47.829 36.2232 49.7116 35.0712 51.4436C33.9192 53.1756 32.3619 54.5499 30.3992 55.5665C28.4366 56.5831 26.3032 57.0914 23.9992 57.0914C21.6952 57.0914 19.5619 56.5831 17.5992 55.5665C15.6366 54.5499 14.0792 53.1756 12.9272 51.4436C11.7752 49.7116 11.1992 47.829 11.1992 45.7958C11.1992 43.7625 11.7752 41.8799 12.9272 40.1479C14.0792 38.4159 15.6366 37.0416 17.5992 36.025C19.5619 35.0084 21.6952 34.5001 23.9992 34.5001ZM55.9992 51.4436C55.1032 51.4436 54.3459 51.7166 53.7272 52.2625C53.1085 52.8085 52.7992 53.4768 52.7992 54.2675C52.7992 55.0582 53.1085 55.7265 53.7272 56.2725C54.3459 56.8184 55.1032 57.0914 55.9992 57.0914C56.8952 57.0914 57.6525 56.8184 58.2712 56.2725C58.8899 55.7265 59.1992 55.0582 59.1992 54.2675C59.1992 53.4768 58.8899 52.8085 58.2712 52.2625C57.6525 51.7166 56.8952 51.4436 55.9992 51.4436ZM23.9992 40.1479C22.8472 40.1479 21.7806 40.4021 20.7992 40.9104C19.8179 41.4187 19.0392 42.1058 18.4632 42.9718C17.8872 43.8378 17.5992 44.7792 17.5992 45.7958C17.5992 46.8124 17.8872 47.7537 18.4632 48.6197C19.0392 49.4857 19.8179 50.1728 20.7992 50.6811C21.7806 51.1894 22.8472 51.4436 23.9992 51.4436C25.1512 51.4436 26.2179 51.1894 27.1992 50.6811C28.1806 50.1728 28.9592 49.4857 29.5352 48.6197C30.1112 47.7537 30.3992 46.8124 30.3992 45.7958C30.3992 44.7792 30.1112 43.8378 29.5352 42.9718C28.9592 42.1058 28.1806 41.4187 27.1992 40.9104C26.2179 40.4021 25.1512 40.1479 23.9992 40.1479ZM51.1992 6.26094C54.3992 6.26094 57.3432 6.95751 60.0312 8.35064C62.7192 9.74377 64.8525 11.6264 66.4312 13.9985C68.0099 16.3706 68.7992 18.9686 68.7992 21.7925C68.7992 24.6164 68.0099 27.2144 66.4312 29.5865C64.8525 31.9586 62.7192 33.8412 60.0312 35.2343C57.3432 36.6274 54.3992 37.324 51.1992 37.324C47.9992 37.324 45.0552 36.6274 42.3672 35.2343C39.6792 33.8412 37.5459 31.9586 35.9672 29.5865C34.3886 27.2144 33.5992 24.6164 33.5992 21.7925C33.5992 18.9686 34.3886 16.3706 35.9672 13.9985C37.5459 11.6264 39.6792 9.74377 42.3672 8.35064C45.0552 6.95751 47.9992 6.26094 51.1992 6.26094ZM51.1992 11.9088C49.1512 11.9088 47.2739 12.3512 45.5672 13.236C43.8605 14.1208 42.5059 15.3163 41.5032 16.8224C40.5006 18.3285 39.9992 19.9852 39.9992 21.7925C39.9992 23.5998 40.5006 25.2565 41.5032 26.7626C42.5059 28.2687 43.8605 29.4641 45.5672 30.3489C47.2739 31.2338 49.1512 31.6762 51.1992 31.6762C53.2472 31.6762 55.1245 31.2338 56.8312 30.3489C58.5379 29.4641 59.8925 28.2687 60.8952 26.7626C61.8979 25.2565 62.3992 23.5998 62.3992 21.7925C62.3992 19.9852 61.8979 18.3285 60.8952 16.8224C59.8925 15.3163 58.5379 14.1208 56.8312 13.236C55.1245 12.3512 53.2472 11.9088 51.1992 11.9088Z" fill="#4B5563"/>
</svg>
