<svg width="80" height="69" viewBox="0 0 80 69" fill="none" xmlns="http://www.w3.org/2000/svg">
<path d="M46.3987 60.375C45.5029 60.375 44.7457 60.0971 44.1272 59.5412C43.5086 58.9854 43.1994 58.305 43.1994 57.5V34.5C43.1994 33.695 43.5086 33.0146 44.1272 32.4587C44.7457 31.9029 45.5029 31.625 46.3987 31.625H65.5949C66.4907 31.625 67.2479 31.9029 67.8664 32.4587C68.485 33.0146 68.7942 33.695 68.7942 34.5V57.5C68.7942 58.305 68.485 58.9854 67.8664 59.5412C67.2479 60.0971 66.4907 60.375 65.5949 60.375H46.3987ZM14.4051 37.375C13.5093 37.375 12.7521 37.0971 12.1336 36.5412C11.515 35.9854 11.2058 35.305 11.2058 34.5V11.5C11.2058 10.695 11.515 10.0146 12.1336 9.45875C12.7521 8.90292 13.5093 8.625 14.4051 8.625H33.6013C34.4971 8.625 35.2543 8.90292 35.8728 9.45875C36.4914 10.0146 36.8006 10.695 36.8006 11.5V34.5C36.8006 35.305 36.4914 35.9854 35.8728 36.5412C35.2543 37.0971 34.4971 37.375 33.6013 37.375H14.4051ZM30.4019 31.625V14.375H17.6045V31.625H30.4019ZM14.4051 60.375C13.5093 60.375 12.7521 60.0971 12.1336 59.5412C11.515 58.9854 11.2058 58.305 11.2058 57.5V46C11.2058 45.195 11.515 44.5146 12.1336 43.9587C12.7521 43.4029 13.5093 43.125 14.4051 43.125H33.6013C34.4971 43.125 35.2543 43.4029 35.8728 43.9587C36.4914 44.5146 36.8006 45.195 36.8006 46V57.5C36.8006 58.305 36.4914 58.9854 35.8728 59.5412C35.2543 60.0971 34.4971 60.375 33.6013 60.375H14.4051ZM17.6045 54.625H30.4019V48.875H17.6045V54.625ZM49.5981 54.625H62.3955V37.375H49.5981V54.625ZM43.1994 11.5C43.1994 10.695 43.5086 10.0146 44.1272 9.45875C44.7457 8.90292 45.5029 8.625 46.3987 8.625H65.5949C66.4907 8.625 67.2479 8.90292 67.8664 9.45875C68.485 10.0146 68.7942 10.695 68.7942 11.5V23C68.7942 23.805 68.485 24.4854 67.8664 25.0412C67.2479 25.5971 66.4907 25.875 65.5949 25.875H46.3987C45.5029 25.875 44.7457 25.5971 44.1272 25.0412C43.5086 24.4854 43.1994 23.805 43.1994 23V11.5ZM49.5981 14.375V20.125H62.3955V14.375H49.5981Z" fill="black"/>
</svg>
