<svg width="80" height="69" viewBox="0 0 80 69" fill="none" xmlns="http://www.w3.org/2000/svg">
<path d="M40 62.7393C35.648 62.7393 31.488 62.005 27.52 60.5366C23.7227 59.1058 20.3413 57.082 17.376 54.4652C14.4107 51.8484 12.1173 48.8644 10.496 45.5134C8.832 42.0117 8 38.3406 8 34.5001C8 30.6596 8.832 26.9885 10.496 23.4868C12.1173 20.1358 14.4107 17.1518 17.376 14.535C20.3413 11.9182 23.7227 9.89438 27.52 8.46359C31.488 6.99516 35.648 6.26094 40 6.26094C44.352 6.26094 48.512 6.99516 52.48 8.46359C56.2773 9.89438 59.6587 11.9182 62.624 14.535C65.5893 17.1518 67.8827 20.1358 69.504 23.4868C71.168 26.9885 72 30.6596 72 34.5001C72 38.3406 71.168 42.0117 69.504 45.5134C67.8827 48.8644 65.5893 51.8484 62.624 54.4652C59.6587 57.082 56.2773 59.1058 52.48 60.5366C48.512 62.005 44.352 62.7393 40 62.7393ZM40 57.0914C44.6507 57.0914 48.96 56.056 52.928 53.9851C56.768 51.9896 59.8187 49.2974 62.08 45.9087C64.4267 42.4071 65.6 38.6042 65.6 34.5001C65.6 30.396 64.4267 26.5931 62.08 23.0915C59.8187 19.7028 56.768 17.0106 52.928 15.0151C48.96 12.9442 44.6507 11.9088 40 11.9088C35.3493 11.9088 31.04 12.9442 27.072 15.0151C23.232 17.0106 20.1813 19.7028 17.92 23.0915C15.5733 26.5931 14.4 30.396 14.4 34.5001C14.4 38.6042 15.5733 42.4071 17.92 45.9087C20.1813 49.2974 23.232 51.9896 27.072 53.9851C31.04 56.056 35.3493 57.0914 40 57.0914Z" fill="#4B5563"/>
</svg>
