<svg width="80" height="69" viewBox="0 0 80 69" fill="none" xmlns="http://www.w3.org/2000/svg">
<path d="M68.8 9.08455C69.696 9.08455 70.4533 9.35753 71.072 9.90349C71.6907 10.4494 72 11.1178 72 11.9085V57.0911C72 57.8818 71.6907 58.5501 71.072 59.0961C70.4533 59.6421 69.696 59.915 68.8 59.915H11.2C10.304 59.915 9.54667 59.6421 8.928 59.0961C8.30933 58.5501 8 57.8818 8 57.0911V11.9085C8 11.1178 8.30933 10.4494 8.928 9.90349C9.54667 9.35753 10.304 9.08455 11.2 9.08455H68.8ZM25.344 40.1476H14.4V54.2672H65.6V40.1476H54.656C53.4187 42.6703 51.4773 44.713 48.832 46.2755C46.1867 47.8381 43.2427 48.6194 40 48.6194C36.7573 48.6194 33.8133 47.8381 31.168 46.2755C28.5227 44.713 26.5813 42.6703 25.344 40.1476ZM65.6 14.7324H14.4V34.4998H30.4C30.4 36.0435 30.8267 37.4649 31.68 38.7639C32.5333 40.0629 33.696 41.0889 35.168 41.842C36.64 42.595 38.2507 42.9715 40 42.9715C41.7493 42.9715 43.36 42.595 44.832 41.842C46.304 41.0889 47.4667 40.0629 48.32 38.7639C49.1733 37.4649 49.6 36.0435 49.6 34.4998H65.6V14.7324Z" fill="#4B5563"/>
</svg>
