<svg width="80" height="69" viewBox="0 0 80 69" fill="none" xmlns="http://www.w3.org/2000/svg">
<path d="M49.92 28.4569C48.512 27.2521 47.68 25.7836 47.424 24.0516L46.144 15.354L37.376 19.5334C35.6693 20.3617 33.8346 20.6253 31.872 20.3241L22.08 18.6862L23.936 27.3274C24.2773 29.0594 23.9786 30.6784 23.04 32.1845L18.304 39.922L28.16 41.0516C30.1226 41.2775 31.7866 42.0117 33.152 43.2542L40 49.6363L44.224 41.7293C45.0773 40.1479 46.4 38.9807 48.192 38.2277L57.152 34.5001L49.92 28.4569ZM50.048 44.1579L42.944 57.2609C42.7306 57.7127 42.368 58.0139 41.856 58.1645C41.344 58.3151 40.8533 58.2963 40.384 58.108C40.1706 57.9951 39.9786 57.8633 39.808 57.7127L28.48 47.1513C28.1813 46.85 27.7973 46.6806 27.328 46.6429L11.008 44.7792C10.496 44.7039 10.0693 44.4779 9.72796 44.1014C9.38663 43.7249 9.25863 43.3107 9.34396 42.8589C9.38663 42.633 9.45063 42.4447 9.53596 42.2941L17.408 29.4735C17.664 29.1347 17.7493 28.777 17.664 28.4005L14.592 14.055C14.5066 13.6031 14.6133 13.189 14.912 12.8124C15.2106 12.4359 15.616 12.1912 16.128 12.0782C16.384 12.0406 16.6186 12.0406 16.832 12.0782L33.088 14.7892C33.5146 14.8645 33.92 14.7892 34.304 14.5633L48.832 7.61643C49.2586 7.39052 49.728 7.34345 50.24 7.47523C50.752 7.60702 51.136 7.87999 51.392 8.29417C51.52 8.48243 51.6053 8.68952 51.648 8.91543L53.76 23.3174C53.8026 23.7316 53.9946 24.0704 54.336 24.334L66.304 34.3307C66.688 34.6695 66.8906 35.0649 66.912 35.5167C66.9333 35.9685 66.752 36.3827 66.368 36.7592C66.1973 36.9098 66.0053 37.0228 65.792 37.0981L50.944 43.3672C50.5173 43.5178 50.2186 43.7814 50.048 44.1579ZM52.544 49.5798L57.088 45.5699L70.656 57.5997L66.176 61.5532L52.544 49.5798Z" fill="black"/>
</svg>
