<svg width="81" height="89" viewBox="0 0 81 89" fill="none" xmlns="http://www.w3.org/2000/svg">
<path d="M9.60959 44.5C9.60959 45.3119 10.1429 46.28 11.2096 47.4042C12.454 48.6533 14.2022 49.8712 16.454 51.0579C19.5355 52.6818 23.18 53.9465 27.3874 54.8521C31.5948 55.7577 36.0392 56.2105 40.7207 56.2105C45.4022 56.2105 49.8466 55.7577 54.054 54.8521C58.2614 53.9465 61.9059 52.6818 64.9874 51.0579C67.2392 49.8712 68.9874 48.6533 70.2318 47.4042C71.2985 46.28 71.8318 45.3119 71.8318 44.5V34.2884C68.0985 36.7242 63.5651 38.6291 58.2318 40.0032C52.7207 41.4396 46.8837 42.1579 40.7207 42.1579C34.5577 42.1579 28.7207 41.4396 23.2096 40.0032C17.8763 38.6291 13.3429 36.7242 9.60959 34.2884V44.5ZM71.8318 57.7095C68.0985 60.1453 63.5651 62.0502 58.2318 63.4242C52.7207 64.8607 46.8837 65.5789 40.7207 65.5789C34.5577 65.5789 28.7207 64.8607 23.2096 63.4242C17.8763 62.0502 13.3429 60.1453 9.60959 57.7095V67.9211C9.60959 68.733 10.1429 69.7011 11.2096 70.8253C12.454 72.0744 14.2022 73.2923 16.454 74.4789C19.5355 76.1028 23.18 77.3675 27.3874 78.2732C31.5948 79.1788 36.0392 79.6316 40.7207 79.6316C45.4022 79.6316 49.8466 79.1788 54.054 78.2732C58.2614 77.3675 61.9059 76.1028 64.9874 74.4789C67.2392 73.2923 68.9874 72.0744 70.2318 70.8253C71.2985 69.7011 71.8318 68.733 71.8318 67.9211V57.7095ZM0.720703 67.9211V21.0789C0.720703 17.2691 2.52811 13.7091 6.14293 10.3989C9.69848 7.27614 14.4985 4.77789 20.5429 2.90421C26.7651 0.968069 33.4911 -8.04663e-07 40.7207 -8.04663e-07C47.9503 -8.04663e-07 54.6763 0.968069 60.8985 2.90421C66.9429 4.77789 71.7429 7.27614 75.2985 10.3989C78.9133 13.7091 80.7207 17.2691 80.7207 21.0789V67.9211C80.7207 71.7309 78.9133 75.2909 75.2985 78.6011C71.7429 81.7239 66.9429 84.2221 60.8985 86.0958C54.6763 88.0319 47.9503 89 40.7207 89C33.4911 89 26.7651 88.0319 20.5429 86.0958C14.4985 84.2221 9.69848 81.7239 6.14293 78.6011C2.52811 75.2909 0.720703 71.7309 0.720703 67.9211ZM40.7207 32.7895C45.4022 32.7895 49.8466 32.3367 54.054 31.4311C58.2614 30.5254 61.9059 29.2607 64.9874 27.6368C67.2392 26.4502 68.9874 25.2323 70.2318 23.9832C71.2985 22.8589 71.8318 21.8909 71.8318 21.0789C71.8318 20.267 71.2985 19.2989 70.2318 18.1747C68.9874 16.9256 67.2392 15.7077 64.9874 14.5211C61.9059 12.8972 58.2614 11.6325 54.054 10.7268C49.8466 9.82123 45.4022 9.36842 40.7207 9.36842C36.0392 9.36842 31.5948 9.82123 27.3874 10.7268C23.18 11.6325 19.5355 12.8972 16.454 14.5211C14.2022 15.7077 12.454 16.9256 11.2096 18.1747C10.1429 19.2989 9.60959 20.267 9.60959 21.0789C9.60959 21.8909 10.1429 22.8589 11.2096 23.9832C12.454 25.2323 14.2022 26.4502 16.454 27.6368C19.5355 29.2607 23.18 30.5254 27.3874 31.4311C31.5948 32.3367 36.0392 32.7895 40.7207 32.7895Z" fill="#4B5563"/>
</svg>
