<svg width="17" height="24" viewBox="0 0 17 24" fill="none" xmlns="http://www.w3.org/2000/svg">
<path d="M14.4688 9.33335V18C14.4688 18.1867 14.4043 18.3445 14.2754 18.4734C14.1465 18.6022 13.9888 18.6667 13.8021 18.6667H3.13542C2.94875 18.6667 2.79097 18.6022 2.66208 18.4734C2.53319 18.3445 2.46875 18.1867 2.46875 18V6.00002C2.46875 5.81335 2.53319 5.65558 2.66208 5.52669C2.79097 5.3978 2.94875 5.33335 3.13542 5.33335H10.4688L14.4688 9.33335ZM13.1354 10H9.80208V6.66669H3.80208V17.3334H13.1354V10ZM5.80208 8.66669H7.80208V10H5.80208V8.66669ZM5.80208 11.3334H11.1354V12.6667H5.80208V11.3334ZM5.80208 14H11.1354V15.3334H5.80208V14Z" fill="#374151"/>
</svg>
